<?xml version="1.0" encoding="UTF-8" standalone="no"?>
<svg
   xmlns:dc="http://purl.org/dc/elements/1.1/"
   xmlns:cc="http://creativecommons.org/ns#"
   xmlns:rdf="http://www.w3.org/1999/02/22-rdf-syntax-ns#"
   xmlns:svg="http://www.w3.org/2000/svg"
   xmlns="http://www.w3.org/2000/svg"
   viewBox="0 0 64 64.153313"
   height="64.153313"
   width="64"
   version="1.1"
   id="svg2">
  <metadata
     id="metadata8">
    <rdf:RDF>
      <cc:Work
         rdf:about="">
        <dc:format>image/svg+xml</dc:format>
        <dc:type
           rdf:resource="http://purl.org/dc/dcmitype/StillImage" />
        <dc:title></dc:title>
      </cc:Work>
    </rdf:RDF>
  </metadata>
  <defs
     id="defs6" />
  <path
     id="path3338"
     d="m 7.2,62.875002 c -0.817391,-0.817391 -1.2,-5.6 -1.2,-15 0,-8.533333 -0.381642,-13.8 -1,-13.8 -2.017069,0 -5,-4.078984 -5,-6.837208 C 0,25.525373 1.585767,22.186088 4,18.81465 7.478124,13.957506 8,12.527201 8,7.8518577 8,4.8945865 8.54,1.935001 9.2,1.275001 c 1.700001,-1.70000134 43.899999,-1.70000134 45.6,0 0.66,0.66 1.2,3.6195855 1.2,6.5768567 0,4.6753433 0.521876,6.1056483 4,10.9627923 2.414233,3.371438 4,6.710723 4,8.423144 0,2.758224 -2.982931,6.837208 -5,6.837208 -0.618357,0 -1,5.266667 -1,13.8 0,9.4 -0.382609,14.182609 -1.2,15 -1.704419,1.704419 -47.895581,1.704419 -49.6,0 z m 16.016168,-13.55 0.283832,-10.75 9,0 9,0 0.283832,10.75 0.283831,10.75 5.966169,0 5.966168,0 0,-13 0,-13 -22,0 -22,0 0,13 0,13 6.466168,0 6.466169,0 0.283831,-10.75 z m 16.783832,0.75 0,-10 -7.5,0 -7.5,0 0,10 0,10 7.5,0 7.5,0 0,-10 z m -26.137091,-27 4.0358,-7 -3.403548,0 c -2.873744,0 -3.955496,0.722865 -6.949354,4.643802 -4.755052,6.227503 -4.743543,9.356198 0.03442,9.356198 1.730833,0 3.173812,-1.607728 6.282687,-7 z m 8.427967,0.585865 c 2.108685,-7.913638 2.120257,-7.585865 -0.267823,-7.585865 -2.002755,0 -2.599692,0.744455 -7.417058,9.25 l -2.690303,4.75 4.33303,0 4.333029,0 1.709125,-6.414135 z M 31,23.075002 c 0,-6.668992 -0.110464,-7 -2.336049,-7 -2.0025,0 -2.573634,0.854545 -4,5.984902 C 23.748778,25.3516 23,28.5016 23,29.059904 c 0,0.558304 1.8,1.015098 4,1.015098 l 4,0 0,-7 z m 10,5.984902 c 0,-0.558304 -0.748778,-3.708304 -1.663951,-7 -1.426366,-5.130357 -1.9975,-5.984902 -4,-5.984902 -2.225585,0 -2.336049,0.331008 -2.336049,7 l 0,7 4,0 c 2.2,0 4,-0.456794 4,-1.015098 z m 8.394005,-3.734902 c -4.817366,-8.505545 -5.414303,-9.25 -7.417058,-9.25 -2.38808,0 -2.376508,-0.327773 -0.267823,7.585865 l 1.709125,6.414135 4.333029,0 4.33303,0 -2.690303,-4.75 z m 10.399274,2.200483 c 0.166165,-1.161206 -1.262319,-4.086822 -3.295807,-6.75 -3.036614,-3.976933 -4.112997,-4.700483 -6.992633,-4.700483 l -3.403548,0 4.067521,7.05502 c 3.582197,6.213237 4.381543,7.018626 6.699354,6.75 1.762786,-0.204301 2.728676,-0.981783 2.925113,-2.354537 z M 52,8.075001 l 0,-4 -20,0 -20,0 0,4 0,4 20,0 20,0 0,-4 z"
     style="fill:#e82323" />
</svg>
