<?xml version="1.0" encoding="UTF-8" standalone="no"?>
<!-- Created with Inkscape (http://www.inkscape.org/) -->

<svg
   xmlns:dc="http://purl.org/dc/elements/1.1/"
   xmlns:cc="http://creativecommons.org/ns#"
   xmlns:rdf="http://www.w3.org/1999/02/22-rdf-syntax-ns#"
   xmlns:svg="http://www.w3.org/2000/svg"
   xmlns="http://www.w3.org/2000/svg"
   xmlns:sodipodi="http://sodipodi.sourceforge.net/DTD/sodipodi-0.dtd"
   xmlns:inkscape="http://www.inkscape.org/namespaces/inkscape"
   id="svg2"
   version="1.1"
   inkscape:version="0.91 r13725"
   width="63.824711"
   height="64"
   viewBox="0 0 63.824711 64"
   sodipodi:docname="2.svg">
  <metadata
     id="metadata8">
    <rdf:RDF>
      <cc:Work
         rdf:about="">
        <dc:format>image/svg+xml</dc:format>
        <dc:type
           rdf:resource="http://purl.org/dc/dcmitype/StillImage" />
        <dc:title></dc:title>
      </cc:Work>
    </rdf:RDF>
  </metadata>
  <defs
     id="defs6" />
  <sodipodi:namedview
     pagecolor="#ffffff"
     bordercolor="#666666"
     borderopacity="1"
     objecttolerance="10"
     gridtolerance="10"
     guidetolerance="10"
     inkscape:pageopacity="0"
     inkscape:pageshadow="2"
     inkscape:window-width="1280"
     inkscape:window-height="661"
     id="namedview4"
     showgrid="false"
     fit-margin-top="0"
     fit-margin-left="0"
     fit-margin-right="0"
     fit-margin-bottom="0"
     inkscape:zoom="3.6875"
     inkscape:cx="31.912356"
     inkscape:cy="32.542373"
     inkscape:window-x="-8"
     inkscape:window-y="-8"
     inkscape:window-maximized="1"
     inkscape:current-layer="svg2" />
  <path
     style="fill:#e82323"
     d="m 5.912356,62 c -1.834289,-1.834289 -2,-3.333333 -2,-18.092271 0,-14.578074 -0.188189,-16.331514 -2,-18.634858 -2.549808,-3.241557 -2.549808,-7.304185 0,-10.545742 1.259973,-1.601795 2,-4.056784 2,-6.6348584 0,-2.7589374 0.651635,-4.7439057 2,-6.0922706 4.345443,-4.3454428 10,-0.9005333 10,6.0922706 0,2.5780744 0.740027,5.0330634 2,6.6348584 2.549808,3.241557 2.549808,7.304185 0,10.545742 -1.811811,2.303344 -2,4.056784 -2,18.634858 0,14.758938 -0.165711,16.257982 -2,18.092271 -1.1,1.1 -2.9,2 -4,2 -1.1,0 -2.9,-0.9 -4,-2 z M 11.689089,44.667893 C 11.956179,30.511148 11.895194,30 9.9390891,30 7.997712,30 7.912356,30.603647 7.912356,44.333333 c 0,7.883334 0.309375,14.642709 0.6875,15.020834 2.166245,2.166245 2.830898,-0.993526 3.089233,-14.686274 z M 13.912356,24 c 1.1,-1.1 2,-2.9 2,-4 0,-2.575564 -3.424436,-6 -6,-6 -2.575563,0 -6,3.424436 -6,6 0,1.1 0.9,2.9 2,4 1.1,1.1 2.9,2 4,2 1.1,0 2.9,-0.9 4,-2 z M 11.728778,7.2499999 c -0.188374,-1.6371456 -0.923433,-2.75 -1.816422,-2.75 -0.892988,0 -1.628048,1.1128544 -1.816422,2.75 C 7.83827,9.4893331 8.175574,10 9.912356,10 11.649137,10 11.986442,9.4893331 11.728778,7.2499999 Z M 27.912356,62 c -1.348365,-1.348365 -2,-3.333333 -2,-6.092271 0,-2.578074 -0.740027,-5.033063 -2,-6.634858 -1.1,-1.398424 -2,-3.771216 -2,-5.272871 0,-1.501655 0.9,-3.874447 2,-5.272871 1.811811,-2.303344 2,-4.056784 2,-18.634858 0,-14.7589378 0.165711,-16.2579821 2,-18.092271 1.1,-1.10000003 2.9,-2 4,-2 1.1,0 2.9,0.89999997 4,2 1.834289,1.8342889 2,3.3333332 2,18.092271 0,14.578074 0.188189,16.331514 2,18.634858 1.1,1.398424 2,3.771216 2,5.272871 0,1.501655 -0.9,3.874447 -2,5.272871 -1.259973,1.601795 -2,4.056784 -2,6.634858 0,4.549318 -2.626917,8.092271 -6,8.092271 -1.1,0 -2.9,-0.9 -4,-2 z m 5.816422,-5.327119 C 33.981754,54.535944 33.630858,54 31.978778,54 c -1.498156,0 -2.066422,0.641666 -2.066422,2.333333 0,4.540387 3.284522,4.832612 3.816422,0.339548 z M 35.912356,48 c 1.1,-1.1 2,-2.9 2,-4 0,-2.575564 -3.424436,-6 -6,-6 -2.575564,0 -6,3.424436 -6,6 0,1.1 0.9,2.9 2,4 1.1,1.1 2.9,2 4,2 1.1,0 2.9,-0.9 4,-2 z M 33.689089,19.25 C 33.457919,6.9285479 33.165385,4.4999999 31.912356,4.4999999 30.659327,4.4999999 30.366793,6.9285479 30.135623,19.25 29.86731,33.551191 29.921372,34 31.912356,34 33.90334,34 33.957402,33.551191 33.689089,19.25 Z M 49.912356,62 c -1.834289,-1.834289 -2,-3.333333 -2,-18.092271 0,-14.578074 -0.188189,-16.331514 -2,-18.634858 -2.549808,-3.241557 -2.549808,-7.304185 0,-10.545742 1.259973,-1.601795 2,-4.056784 2,-6.6348584 0,-2.7589374 0.651635,-4.7439057 2,-6.0922706 4.345443,-4.3454428 10,-0.9005333 10,6.0922706 0,2.5780744 0.740027,5.0330634 2,6.6348584 2.549808,3.241557 2.549808,7.304185 0,10.545742 -1.811811,2.303344 -2,4.056784 -2,18.634858 0,14.758938 -0.165711,16.257982 -2,18.092271 -1.1,1.1 -2.9,2 -4,2 -1.1,0 -2.9,-0.9 -4,-2 z M 55.689089,44.667893 C 55.956179,30.511148 55.895194,30 53.939089,30 c -1.941377,0 -2.026733,0.603647 -2.026733,14.333333 0,7.883334 0.309375,14.642709 0.6875,15.020834 2.166245,2.166245 2.830898,-0.993526 3.089233,-14.686274 z M 57.912356,24 c 1.1,-1.1 2,-2.9 2,-4 0,-2.575564 -3.424436,-6 -6,-6 -1.1,0 -2.9,0.9 -4,2 -1.1,1.1 -2,2.9 -2,4 0,1.1 0.9,2.9 2,4 1.1,1.1 2.9,2 4,2 1.1,0 2.9,-0.9 4,-2 z M 55.728778,7.2499999 c -0.420419,-3.6538311 -3.212425,-3.6538311 -3.632844,0 C 51.83827,9.4893331 52.175574,10 53.912356,10 c 1.736781,0 2.074086,-0.5106669 1.816422,-2.7500001 z"
     id="path3338"
     inkscape:connector-curvature="0" />
</svg>
