<?xml version="1.0" encoding="UTF-8" standalone="no"?>
<!-- Created with Inkscape (http://www.inkscape.org/) -->

<svg
   xmlns:dc="http://purl.org/dc/elements/1.1/"
   xmlns:cc="http://creativecommons.org/ns#"
   xmlns:rdf="http://www.w3.org/1999/02/22-rdf-syntax-ns#"
   xmlns:svg="http://www.w3.org/2000/svg"
   xmlns="http://www.w3.org/2000/svg"
   xmlns:sodipodi="http://sodipodi.sourceforge.net/DTD/sodipodi-0.dtd"
   xmlns:inkscape="http://www.inkscape.org/namespaces/inkscape"
   id="svg2"
   version="1.1"
   inkscape:version="0.91 r13725"
   width="63.53791"
   height="63.386173"
   viewBox="0 0 63.53791 63.386173"
   sodipodi:docname="3.svg">
  <metadata
     id="metadata8">
    <rdf:RDF>
      <cc:Work
         rdf:about="">
        <dc:format>image/svg+xml</dc:format>
        <dc:type
           rdf:resource="http://purl.org/dc/dcmitype/StillImage" />
        <dc:title></dc:title>
      </cc:Work>
    </rdf:RDF>
  </metadata>
  <defs
     id="defs6" />
  <sodipodi:namedview
     pagecolor="#ffffff"
     bordercolor="#666666"
     borderopacity="1"
     objecttolerance="10"
     gridtolerance="10"
     guidetolerance="10"
     inkscape:pageopacity="0"
     inkscape:pageshadow="2"
     inkscape:window-width="1280"
     inkscape:window-height="661"
     id="namedview4"
     showgrid="false"
     fit-margin-top="0"
     fit-margin-left="0"
     fit-margin-right="0"
     fit-margin-bottom="0"
     inkscape:zoom="3.6875"
     inkscape:cx="31.448247"
     inkscape:cy="31.516077"
     inkscape:window-x="-8"
     inkscape:window-y="-8"
     inkscape:window-maximized="1"
     inkscape:current-layer="svg2" />
  <path
     style="fill:#e82a2a"
     d="M 11.240619,52.363178 C 5.0531189,46.150619 -0.00515805,40.399657 3.9473809e-6,39.583263 0.00520395,38.766869 1.3486109,35.763823 2.9854399,32.909828 5.9532929,27.735042 12.377601,22.426125 23.008231,16.363404 28.542018,13.207447 33.80463,7.9478925 35.917688,3.4614467 38.640317,-2.3192402 40.428089,-1.527739 52.874219,10.968622 65.578848,23.724525 65.4489,23.354549 60.152579,31.690823 58.179933,34.795717 54.847781,37.827527 49.862899,41.053047 33.570287,51.595353 31.64802,53.169512 28.956571,58.173391 27.415818,61.03792 25.508766,63.216035 24.398944,63.378825 23.099399,63.569443 18.901724,60.05531 11.240619,52.363178 Z m 14.638093,3.485732 c 2.610503,-5.075531 5.979023,-8.016758 16.751556,-14.626639 9.290233,-5.700362 14.705844,-10.771677 16.476593,-15.4291 0.912855,-2.400991 0.278913,-3.286911 -8.971135,-12.536959 L 40.182325,3.3028106 38.110239,7.3644355 C 35.701314,12.086318 30.392279,16.60559 20.269546,22.551175 12.712155,26.990007 6.5974879,32.872524 4.9000349,37.337165 c -0.93688,2.464181 -0.372015,3.265388 8.7758641,12.447723 5.377458,5.397712 9.888994,9.814022 10.025634,9.814022 0.136641,0 1.116372,-1.6875 2.177179,-3.75 z M 21.990619,52.5387 c 0,-1.933313 7.711499,-9.561624 8.683398,-8.589725 0.396061,0.396061 -1.395679,2.8359 -3.981644,5.421865 -2.848685,2.848686 -4.701754,4.097211 -4.701754,3.16786 z m 9.724177,-13.074272 c -2.640554,-1.477728 -2.103367,-3.177505 0.775823,-2.454874 2.754698,0.691385 2.97481,0.345063 1.514688,-2.383199 -0.785247,-1.467247 -1.780468,-1.734419 -4.901425,-1.315811 -4.955077,0.664615 -6.704298,-1.685544 -4.870522,-6.543771 1.167183,-3.092221 5.415112,-5.11539 7.73286,-3.682942 1.921654,1.187647 1.02975,2.515079 -1.689887,2.515079 -2.562373,0 -2.618442,0.09584 -1.001814,1.712471 1.16039,1.160391 2.96981,1.621689 5.612548,1.430877 2.145042,-0.154877 4.217162,0.231461 4.604711,0.858528 0.979338,1.584601 -0.420235,10.166172 -1.544668,9.471234 -0.503336,-0.311079 -1.723578,-0.132945 -2.711647,0.395854 -1.150699,0.615835 -2.416287,0.614596 -3.520667,-0.0034 z m 5.829674,-6.778386 c -0.775189,-1.254281 -3.553851,-1.478782 -3.553851,-0.287132 0,0.44 0.54,1.34 1.2,2 1.397992,1.397992 3.38351,-0.04684 2.353851,-1.712868 z M 28.990619,29.09891 c -0.684689,-0.825 -1.639789,-1.5 -2.122445,-1.5 -0.482655,0 -0.877555,0.675 -0.877555,1.5 0,0.862179 0.902494,1.5 2.122445,1.5 1.773235,0 1.917621,-0.246798 0.877555,-1.5 z m 4,-9.961617 c 0,-0.253889 2.025,-2.545188 4.5,-5.091776 2.475,-2.546588 4.5,-4.005187 4.5,-3.241331 0,0.763856 -1.706473,3.055155 -3.792163,5.091776 -3.454488,3.373218 -5.207837,4.464493 -5.207837,3.241331 z"
     id="path3338"
     inkscape:connector-curvature="0" />
</svg>
