<?xml version="1.0" encoding="UTF-8" standalone="no"?>
<!-- Created with Inkscape (http://www.inkscape.org/) -->

<svg
   xmlns:dc="http://purl.org/dc/elements/1.1/"
   xmlns:cc="http://creativecommons.org/ns#"
   xmlns:rdf="http://www.w3.org/1999/02/22-rdf-syntax-ns#"
   xmlns:svg="http://www.w3.org/2000/svg"
   xmlns="http://www.w3.org/2000/svg"
   xmlns:sodipodi="http://sodipodi.sourceforge.net/DTD/sodipodi-0.dtd"
   xmlns:inkscape="http://www.inkscape.org/namespaces/inkscape"
   id="svg2"
   version="1.1"
   inkscape:version="0.91 r13725"
   width="64.000481"
   height="63.5"
   viewBox="0 0 64.000481 63.5"
   sodipodi:docname="4.svg">
  <metadata
     id="metadata8">
    <rdf:RDF>
      <cc:Work
         rdf:about="">
        <dc:format>image/svg+xml</dc:format>
        <dc:type
           rdf:resource="http://purl.org/dc/dcmitype/StillImage" />
        <dc:title></dc:title>
      </cc:Work>
    </rdf:RDF>
  </metadata>
  <defs
     id="defs6" />
  <sodipodi:namedview
     pagecolor="#ffffff"
     bordercolor="#666666"
     borderopacity="1"
     objecttolerance="10"
     gridtolerance="10"
     guidetolerance="10"
     inkscape:pageopacity="0"
     inkscape:pageshadow="2"
     inkscape:window-width="1280"
     inkscape:window-height="661"
     id="namedview4"
     showgrid="false"
     fit-margin-top="0"
     fit-margin-left="0"
     fit-margin-right="0"
     fit-margin-bottom="0"
     inkscape:zoom="3.6875"
     inkscape:cx="32.000311"
     inkscape:cy="31.728814"
     inkscape:window-x="-8"
     inkscape:window-y="-8"
     inkscape:window-maximized="1"
     inkscape:current-layer="svg2" />
  <path
     style="fill:#e82020"
     d="M 1.6552978,61.671259 C 0.20633481,60.070173 3.1080842e-4,56.666082 3.1080842e-4,34.326247 3.1080842e-4,4.8778558 -0.18880219,5.5 8.7626288,5.5 13.588167,5.5 13.884779,5.3495403 14.183889,2.75 14.372263,1.1128544 15.107322,0 16.000311,0 c 0.892989,0 1.628048,1.1128544 1.816422,2.75 0.305097,2.6515719 0.52642,2.75 6.183578,2.75 5.657158,0 5.878481,-0.098428 6.183578,-2.75 0.420419,-3.6538311 3.212425,-3.6538311 3.632844,0 0.305097,2.6515719 0.52642,2.75 6.183578,2.75 5.657158,0 5.878481,-0.098428 6.183578,-2.75 0.420419,-3.6538311 3.212425,-3.6538311 3.632844,0 0.300627,2.612722 0.579926,2.75 5.595013,2.75 8.73974,0 8.588565,-0.5135134 8.588565,29.173753 0,23.449758 -0.148106,25.650306 -1.828741,27.171259 C 60.559903,63.303552 56.957925,63.5 31.826558,63.5 5.4704488,63.5 3.1849168,63.361469 1.6552978,61.671259 Z M 60.000311,34.5 l 0,-25 -4.933578,0 c -4.638709,0 -4.952489,0.164361 -5.25,2.75 C 49.628359,13.887146 48.8933,15 48.000311,15 47.107322,15 46.372263,13.887146 46.183889,12.25 45.878792,9.598428 45.657469,9.5 40.000311,9.5 c -5.657158,0 -5.878481,0.09843 -6.183578,2.75 -0.420419,3.653831 -3.212425,3.653831 -3.632844,0 -0.305097,-2.651572 -0.52642,-2.75 -6.183578,-2.75 -5.657158,0 -5.878481,0.09843 -6.183578,2.75 -0.420419,3.653831 -3.212425,3.653831 -3.632844,0 C 13.886378,9.664361 13.572598,9.5 8.9338878,9.5 l -4.933577,0 0,25 0,25 28.0000002,0 28,0 0,-25 z m -46,12 c 0,-2.833333 0.222222,-3 4,-3 3.777778,0 4,0.166667 4,3 0,2.833333 -0.222222,3 -4,3 -3.777778,0 -4,-0.166667 -4,-3 z m 14,0 c 0,-2.833333 0.222222,-3 4,-3 3.777778,0 4,0.166667 4,3 0,2.833333 -0.222222,3 -4,3 -3.777778,0 -4,-0.166667 -4,-3 z m 14,0 c 0,-2.833333 0.222222,-3 4,-3 3.777778,0 4,0.166667 4,3 0,2.833333 -0.222222,3 -4,3 -3.777778,0 -4,-0.166667 -4,-3 z m -28,-10 c 0,-2.833333 0.222222,-3 4,-3 3.777778,0 4,0.166667 4,3 0,2.833333 -0.222222,3 -4,3 -3.777778,0 -4,-0.166667 -4,-3 z m 14,0 c 0,-2.833333 0.222222,-3 4,-3 3.777778,0 4,0.166667 4,3 0,2.833333 -0.222222,3 -4,3 -3.777778,0 -4,-0.166667 -4,-3 z m 14,0 c 0,-2.833333 0.222222,-3 4,-3 3.777778,0 4,0.166667 4,3 0,2.833333 -0.222222,3 -4,3 -3.777778,0 -4,-0.166667 -4,-3 z m -28,-10 c 0,-2.833333 0.222222,-3 4,-3 3.777778,0 4,0.166667 4,3 0,2.833333 -0.222222,3 -4,3 -3.777778,0 -4,-0.166667 -4,-3 z m 14,0 c 0,-2.833333 0.222222,-3 4,-3 3.777778,0 4,0.166667 4,3 0,2.833333 -0.222222,3 -4,3 -3.777778,0 -4,-0.166667 -4,-3 z m 14,0 c 0,-2.833333 0.222222,-3 4,-3 3.777778,0 4,0.166667 4,3 0,2.833333 -0.222222,3 -4,3 -3.777778,0 -4,-0.166667 -4,-3 z"
     id="path3338"
     inkscape:connector-curvature="0" />
</svg>
