<?xml version="1.0" encoding="UTF-8" standalone="no"?>
<!-- Created with Inkscape (http://www.inkscape.org/) -->

<svg
   xmlns:dc="http://purl.org/dc/elements/1.1/"
   xmlns:cc="http://creativecommons.org/ns#"
   xmlns:rdf="http://www.w3.org/1999/02/22-rdf-syntax-ns#"
   xmlns:svg="http://www.w3.org/2000/svg"
   xmlns="http://www.w3.org/2000/svg"
   xmlns:sodipodi="http://sodipodi.sourceforge.net/DTD/sodipodi-0.dtd"
   xmlns:inkscape="http://www.inkscape.org/namespaces/inkscape"
   id="svg2"
   version="1.1"
   inkscape:version="0.91 r13725"
   width="63.748352"
   height="63.784534"
   viewBox="0 0 63.748352 63.784534"
   sodipodi:docname="5.svg">
  <metadata
     id="metadata8">
    <rdf:RDF>
      <cc:Work
         rdf:about="">
        <dc:format>image/svg+xml</dc:format>
        <dc:type
           rdf:resource="http://purl.org/dc/dcmitype/StillImage" />
        <dc:title></dc:title>
      </cc:Work>
    </rdf:RDF>
  </metadata>
  <defs
     id="defs6" />
  <sodipodi:namedview
     pagecolor="#ffffff"
     bordercolor="#666666"
     borderopacity="1"
     objecttolerance="10"
     gridtolerance="10"
     guidetolerance="10"
     inkscape:pageopacity="0"
     inkscape:pageshadow="2"
     inkscape:window-width="1280"
     inkscape:window-height="661"
     id="namedview4"
     showgrid="false"
     fit-margin-top="0"
     fit-margin-left="0"
     fit-margin-right="0"
     fit-margin-bottom="0"
     inkscape:zoom="3.6875"
     inkscape:cx="32"
     inkscape:cy="32.302555"
     inkscape:window-x="-8"
     inkscape:window-y="-8"
     inkscape:window-maximized="1"
     inkscape:current-layer="svg2" />
  <path
     style="fill:#e82626"
     d="m 2,61.753166 c -1.851852,-1.851852 -2,-3.333333 -2,-20 0,-17.042945 0.113454,-18.113455 2.133818,-20.133818 1.90865,-1.90865 2.876629,-2.071544 9.173109,-1.54367 l 7.03929,0.590149 3.287001,-3.485237 C 23.64758,15.044744 25.141613,12.254646 25.492041,9.9742599 26.530728,3.215063 27.473994,1.3104751 30.269828,0.32723326 35.823841,-1.6260089 41.46096,5.4324467 41.485786,14.371169 l 0.01421,5.118003 9,0.618819 c 8.11768,0.558153 9.2294,0.880921 11.339964,3.292351 1.80464,2.061895 2.198845,3.380365 1.723116,5.763178 -0.339267,1.699305 -0.590461,4.555028 -0.558208,6.346049 0.03225,1.791022 -0.443267,4.194229 -1.056711,5.34046 -0.613444,1.14623 -1.259103,3.630745 -1.434797,5.521143 -0.175694,1.890399 -1.038076,4.53386 -1.916404,5.874358 C 57.718632,53.586028 57,55.619086 57,56.763437 c 0,1.144351 -1.104545,3.185184 -2.454545,4.535184 -2.243438,2.243437 -3.230771,2.454545 -11.479693,2.454545 -4.963831,0 -12.604672,-0.721259 -16.979647,-1.602798 -7.297409,-1.470397 -8.143527,-1.470397 -10.242813,0 C 12.489067,64.499766 4.517885,64.271051 2,61.753166 Z m 11.5,-20 0,-17.5 -4.5,0 -4.5,0 -0.275786,16.461612 c -0.151682,9.053886 -0.0433,17.067462 0.240851,17.807945 0.34905,0.90961 1.898215,1.246442 4.775785,1.038388 L 13.5,59.253166 l 0,-17.5 z M 6.958347,56.202978 c -1.06278,-1.280572 -0.997114,-1.839617 0.377555,-3.214286 1.55213,-1.55213 1.776065,-1.55213 3.328195,0 1.37467,1.374669 1.440336,1.933714 0.377556,3.214286 C 10.334055,57.055581 9.415311,57.753166 9,57.753166 c -0.415311,0 -1.334055,-0.697585 -2.041653,-1.550188 z m 3.0416528,-1.449812 c 0,-0.55 -0.4499998,-1 -0.9999998,-1 -0.55,0 -1,0.45 -1,1 0,0.55 0.45,1 1,1 0.55,0 0.9999998,-0.45 0.9999998,-1 z m 42.8164222,1.75 c 0.284311,-2.470919 0.0052,-2.75 -2.75,-2.75 -1.686532,0 -3.066422,-0.45 -3.066422,-1 0,-0.55 1.4625,-1.006891 3.25,-1.015313 4.368661,-0.02058 5.787436,-1.093727 6.038877,-4.567731 0.194954,-2.693558 -0.07608,-2.940726 -3.538877,-3.227321 -4.94692,-0.409427 -4.843215,-2.189635 0.127555,-2.189635 4.382873,0 6.431992,-1.789329 5.949209,-5.194958 -0.265028,-1.869546 -1.035259,-2.36368 -4.076764,-2.615407 -5.085516,-0.420898 -4.753645,-2.002023 0.5,-2.382137 3.642028,-0.26351 4.299349,-0.657114 4.59497,-2.75147 0.572238,-4.054075 -2.096379,-5.056028 -13.466294,-5.056028 l -10.239065,0 0.930195,-3.243398 C 38.546958,15.35924 38.154638,10.519066 35.969503,6.9349954 33.746794,3.2892939 30.749342,2.9418948 30.185584,6.2646498 28.690853,15.074496 24.811839,21.247747 18.825721,24.343289 L 15.948329,25.831247 16.224164,40.991541 16.5,56.151836 24,57.871587 c 4.941751,1.133144 11.081548,1.662076 18,1.550665 l 10.5,-0.169086 0.316422,-2.75 z"
     id="path3338"
     inkscape:connector-curvature="0" />
</svg>
