<?xml version="1.0" encoding="UTF-8" standalone="no"?>
<!-- Created with Inkscape (http://www.inkscape.org/) -->

<svg
   xmlns:dc="http://purl.org/dc/elements/1.1/"
   xmlns:cc="http://creativecommons.org/ns#"
   xmlns:rdf="http://www.w3.org/1999/02/22-rdf-syntax-ns#"
   xmlns:svg="http://www.w3.org/2000/svg"
   xmlns="http://www.w3.org/2000/svg"
   xmlns:sodipodi="http://sodipodi.sourceforge.net/DTD/sodipodi-0.dtd"
   xmlns:inkscape="http://www.inkscape.org/namespaces/inkscape"
   id="svg2"
   version="1.1"
   inkscape:version="0.91 r13725"
   width="63.679249"
   height="55.909668"
   viewBox="0 0 63.679249 55.909668"
   sodipodi:docname="6.svg">
  <metadata
     id="metadata8">
    <rdf:RDF>
      <cc:Work
         rdf:about="">
        <dc:format>image/svg+xml</dc:format>
        <dc:type
           rdf:resource="http://purl.org/dc/dcmitype/StillImage" />
        <dc:title></dc:title>
      </cc:Work>
    </rdf:RDF>
  </metadata>
  <defs
     id="defs6" />
  <sodipodi:namedview
     pagecolor="#ffffff"
     bordercolor="#666666"
     borderopacity="1"
     objecttolerance="10"
     gridtolerance="10"
     guidetolerance="10"
     inkscape:pageopacity="0"
     inkscape:pageshadow="2"
     inkscape:window-width="1280"
     inkscape:window-height="661"
     id="namedview4"
     showgrid="false"
     fit-margin-top="0"
     fit-margin-left="0"
     fit-margin-right="0"
     fit-margin-bottom="0"
     inkscape:zoom="4.2142857"
     inkscape:cx="31.099795"
     inkscape:cy="25.698305"
     inkscape:window-x="-8"
     inkscape:window-y="-8"
     inkscape:window-maximized="1"
     inkscape:current-layer="svg2" />
  <path
     style="fill:#e82828"
     d="M 16.528089,43.159667 C 8.9470559,35.698849 2.8016609,28.750316 1.7141169,26.409667 -2.7594541,16.781494 1.8149159,5.7310395 12.043188,1.4573945 c 5.197776,-2.17176945 9.674966,-1.92972925 15.098993,0.8162627 l 4.669478,2.3639905 4.669478,-2.3639905 c 5.424027,-2.74599195 9.901217,-2.98803215 15.098993,-0.8162627 4.941462,2.0646747 8.107231,5.1112962 10.341486,9.9522725 2.347579,5.086516 2.34357,9.929368 -0.01242,15 -2.594627,5.584257 -26.9948,29.5 -30.097537,29.5 -1.638367,0 -6.166487,-3.77749 -15.28357,-12.75 z M 44.00309,40.730596 C 57.358514,28.237429 60.28804,23.828464 59.554987,17.32484 58.225952,5.5336713 44.88836,0.03736352 35.318041,7.3370014 L 31.811659,10.01145 28.305277,7.3370014 C 18.730511,0.03397132 5.3973359,5.5339407 4.0671529,17.335291 c -0.721533,6.401419 1.517145,9.792659 15.0477251,22.794901 6.70823,6.446289 12.363461,11.733789 12.56718,11.75 0.20372,0.01621 5.748184,-5.001107 12.321032,-11.149596 z M 9.8116587,17.332744 c 0,-2.043942 5.3791353,-7.423077 7.4230773,-7.423077 2.563596,0 1.803881,1.475858 -1.377948,2.676864 -1.867427,0.704875 -3.195384,2.073619 -3.608408,3.719238 -0.712484,2.838762 -2.4367213,3.565455 -2.4367213,1.026975 z"
     id="path3338"
     inkscape:connector-curvature="0" />
</svg>
